<svg id="Capa_1" enable-background="new 0 0 511.926 511.926" height="512" viewBox="0 0 511.926 511.926" width="512" xmlns="http://www.w3.org/2000/svg"><g><path d="m70.204 11.802 107.059 350.124 46.707 11 38-11 30-131-30-143.35z" fill="#ffea80"/><path d="m441.722 158.603-179.752-71.027v274.35l45 6 39.707-6z" fill="#ffc34d"/><path d="m222.47 311.926h39.5l4-15-4-15h-39.5z" fill="#fd697f"/><path d="m261.97 281.926h39.5v30h-39.5z" fill="#e6455d"/><path d="m222.47 251.926h39.5l5-15-5-15h-39.5z" fill="#fd697f"/><path d="m261.97 221.926h39.5v30h-39.5z" fill="#e6455d"/><path d="m225.613 57.094-65.534 16.935 43.065 52.22-4.146 67.56 62.972-24.82 12-69.063-12-99.926z" fill="#fd697f"/><path d="m320.797 126.249 43.064-52.22-65.534-16.935-36.357-57.094v168.989l62.972 24.82z" fill="#e6455d"/><path d="m177.263 361.926-15 90h99.707l12-46-12-44z" fill="#ffc34d"/><path d="m346.677 361.926h-84.707v90h99.707z" fill="#f93"/><path d="m142.263 421.926-15 90h134.707l8-41-8-49z" fill="#60474f"/><path d="m381.677 421.926h-119.707v90h134.707z" fill="#3f303a"/></g></svg>