<?xml version="1.0" standalone="no"?>
<!DOCTYPE svg PUBLIC "-//W3C//DTD SVG 20010904//EN"
 "http://www.w3.org/TR/2001/REC-SVG-20010904/DTD/svg10.dtd">
<svg version="1.0" xmlns="http://www.w3.org/2000/svg"
 width="500.000000pt" height="500.000000pt" viewBox="0 0 500.000000 500.000000"
 preserveAspectRatio="xMidYMid meet">
<metadata>
Created by potrace 1.11, written by Peter Selinger 2001-2013
</metadata>
<g transform="translate(0.000000,500.000000) scale(0.100000,-0.100000)"
fill="#000000" stroke="none">
<path d="M2488 4805 c-4 -4 -44 -8 -90 -10 -46 -2 -105 -7 -133 -10 -27 -3
-68 -8 -90 -10 -70 -8 -105 -14 -115 -20 -6 -3 -10 -1 -10 5 0 6 -4 8 -10 5
-11 -7 -41 -14 -86 -20 -17 -3 -50 -11 -72 -19 -23 -9 -42 -12 -42 -8 0 4 -4
2 -8 -4 -4 -6 -50 -25 -102 -43 -109 -37 -264 -110 -362 -170 -37 -23 -70 -41
-73 -41 -34 0 -415 -322 -415 -351 0 -6 -4 -7 -10 -4 -5 3 -10 3 -10 -2 0 -4
-19 -28 -41 -53 -23 -25 -67 -78 -98 -118 -257 -334 -388 -629 -456 -1026 -36
-214 -38 -524 -5 -706 6 -30 13 -68 15 -85 3 -16 15 -68 26 -115 12 -47 23
-96 25 -109 3 -14 7 -28 10 -33 3 -5 7 -18 9 -31 8 -42 83 -222 129 -307 25
-47 52 -99 60 -116 16 -35 132 -208 198 -294 74 -97 334 -349 397 -384 9 -5
18 -12 21 -16 3 -3 57 -40 120 -82 114 -74 353 -198 384 -198 9 0 16 -4 16 -8
0 -5 6 -9 13 -10 6 -1 62 -18 122 -39 146 -51 253 -76 435 -99 61 -8 185 -11
195 -5 20 11 43 13 220 16 184 3 236 8 292 26 18 6 37 8 43 4 5 -3 10 -2 10 2
0 5 14 8 31 7 17 -1 46 4 65 12 19 8 34 12 34 10 0 -8 226 75 308 115 46 21
88 39 93 39 5 0 9 4 9 10 0 5 3 9 8 8 22 -5 175 85 312 186 162 119 339 293
454 446 47 63 90 120 96 127 5 7 10 16 10 21 0 5 7 15 15 22 8 7 12 16 9 21
-3 5 -2 9 3 9 4 0 14 15 22 32 8 18 17 35 21 38 6 5 124 235 120 235 -1 0 1 8
40 110 12 33 23 65 24 70 2 6 8 28 14 50 6 22 12 43 12 47 0 4 7 26 15 48 8
22 12 40 10 40 -2 0 1 15 6 33 5 17 12 48 15 67 3 19 7 46 10 60 12 73 19 130
19 173 0 26 2 47 5 47 4 0 4 191 -1 290 -2 59 -24 209 -40 280 -11 47 -22 96
-24 110 -1 14 -4 25 -5 25 -1 0 -3 7 -5 15 -13 59 -58 200 -70 222 -8 14 -15
32 -15 39 0 12 -107 228 -150 304 -13 22 -29 52 -37 66 -7 15 -20 32 -28 39
-8 7 -15 18 -15 25 0 8 -4 15 -8 17 -4 2 -37 41 -72 88 -95 124 -188 223 -302
323 -84 72 -235 187 -248 187 -5 0 -10 5 -10 10 0 6 -4 10 -10 10 -5 0 -26 11
-46 25 -49 33 -314 168 -314 159 0 -3 -6 -2 -12 3 -11 9 -82 36 -98 38 -3 0
-10 3 -15 7 -17 11 -193 59 -285 78 -118 25 -176 33 -237 34 -29 1 -53 3 -53
7 0 3 -25 2 -56 -1 -30 -3 -57 -3 -59 0 -5 8 -37 6 -52 -3 -6 -4 -13 -2 -15 4
-2 5 -6 7 -10 4z"/>
</g>
</svg>
